<svg width="3359" height="2650" xmlns="http://www.w3.org/2000/svg" xmlns:xlink="http://www.w3.org/1999/xlink" xml:space="preserve" overflow="hidden"><g transform="translate(-1083 -140)"><text fill="#9CDCFE" font-family="Consolas,Consolas_MSFontService,sans-serif" font-weight="400" font-size="83" transform="matrix(1 0 0 1 1133 244)">fact</text><text fill="#D4D4D4" font-family="Consolas,Consolas_MSFontService,sans-serif" font-weight="400" font-size="83" transform="matrix(1 0 0 1 1359.3 244)">:=</text><text fill="#4EC9B0" font-family="Consolas,Consolas_MSFontService,sans-serif" font-weight="400" font-size="83" transform="matrix(1 0 0 1 1495.08 244)">typesFact</text><text fill="#CCCCCC" font-family="Consolas,Consolas_MSFontService,sans-serif" font-weight="400" font-size="83" transform="matrix(1 0 0 1 1902.43 244)">{</text><text fill="#9CDCFE" font-family="Consolas,Consolas_MSFontService,sans-serif" font-weight="400" font-size="83" transform="matrix(1 0 0 1 1947.69 244)">pass</text><text fill="#CCCCCC" font-family="Consolas,Consolas_MSFontService,sans-serif" font-weight="400" font-size="83" transform="matrix(1 0 0 1 2128.73 244)">.</text><text fill="#9CDCFE" font-family="Consolas,Consolas_MSFontService,sans-serif" font-weight="400" font-size="83" transform="matrix(1 0 0 1 2173.99 244)">TypesInfo</text><text fill="#CCCCCC" font-family="Consolas,Consolas_MSFontService,sans-serif" font-weight="400" font-size="83" transform="matrix(1 0 0 1 2581.33 244)">}</text><text fill="#9CDCFE" font-family="Consolas,Consolas_MSFontService,sans-serif" font-weight="400" font-size="83" transform="matrix(1 0 0 1 1133 343)">pass</text><text fill="#CCCCCC" font-family="Consolas,Consolas_MSFontService,sans-serif" font-weight="400" font-size="83" transform="matrix(1 0 0 1 1314.04 343)">.</text><text fill="#DCDCAA" font-family="Consolas,Consolas_MSFontService,sans-serif" font-weight="400" font-size="83" transform="matrix(1 0 0 1 1359.3 343)">ExportPackageFact</text><text fill="#CCCCCC" font-family="Consolas,Consolas_MSFontService,sans-serif" font-weight="400" font-size="83" transform="matrix(1 0 0 1 2128.73 343)">(</text><text fill="#D4D4D4" font-family="Consolas,Consolas_MSFontService,sans-serif" font-weight="400" font-size="83" transform="matrix(1 0 0 1 2173.99 343)">&amp;</text><text fill="#9CDCFE" font-family="Consolas,Consolas_MSFontService,sans-serif" font-weight="400" font-size="83" transform="matrix(1 0 0 1 2219.25 343)">fact</text><text fill="#CCCCCC" font-family="Consolas,Consolas_MSFontService,sans-serif" font-weight="400" font-size="83" transform="matrix(1 0 0 1 2400.29 343)">)</text><text fill="#9CDCFE" font-family="Consolas,Consolas_MSFontService,sans-serif" font-weight="400" font-size="83" transform="matrix(1 0 0 1 1133 442)">prog</text><text fill="#D4D4D4" font-family="Consolas,Consolas_MSFontService,sans-serif" font-weight="400" font-size="83" transform="matrix(1 0 0 1 1359.3 442)">:=</text><text fill="#9CDCFE" font-family="Consolas,Consolas_MSFontService,sans-serif" font-weight="400" font-size="83" transform="matrix(1 0 0 1 1495.08 442)">ssa</text><text fill="#CCCCCC" font-family="Consolas,Consolas_MSFontService,sans-serif" font-weight="400" font-size="83" transform="matrix(1 0 0 1 1630.86 442)">.</text><text fill="#DCDCAA" font-family="Consolas,Consolas_MSFontService,sans-serif" font-weight="400" font-size="83" transform="matrix(1 0 0 1 1676.12 442)">NewProgram</text><text fill="#CCCCCC" font-family="Consolas,Consolas_MSFontService,sans-serif" font-weight="400" font-size="83" transform="matrix(1 0 0 1 2128.73 442)">(</text><text fill="#9CDCFE" font-family="Consolas,Consolas_MSFontService,sans-serif" font-weight="400" font-size="83" transform="matrix(1 0 0 1 2173.99 442)">pass</text><text fill="#CCCCCC" font-family="Consolas,Consolas_MSFontService,sans-serif" font-weight="400" font-size="83" transform="matrix(1 0 0 1 2355.03 442)">.</text><text fill="#9CDCFE" font-family="Consolas,Consolas_MSFontService,sans-serif" font-weight="400" font-size="83" transform="matrix(1 0 0 1 2400.29 442)">Fset</text><text fill="#CCCCCC" font-family="Consolas,Consolas_MSFontService,sans-serif" font-weight="400" font-size="83" transform="matrix(1 0 0 1 2581.33 442)">, </text><text fill="#9CDCFE" font-family="Consolas,Consolas_MSFontService,sans-serif" font-weight="400" font-size="83" transform="matrix(1 0 0 1 2671.85 442)">ssa</text><text fill="#CCCCCC" font-family="Consolas,Consolas_MSFontService,sans-serif" font-weight="400" font-size="83" transform="matrix(1 0 0 1 2807.64 442)">.</text><text fill="#9CDCFE" font-family="Consolas,Consolas_MSFontService,sans-serif" font-weight="400" font-size="83" transform="matrix(1 0 0 1 2852.9 442)">InstantiateGenerics</text><text fill="#CCCCCC" font-family="Consolas,Consolas_MSFontService,sans-serif" font-weight="400" font-size="83" transform="matrix(1 0 0 1 3712.84 442)">)</text><text fill="#9CDCFE" font-family="Consolas,Consolas_MSFontService,sans-serif" font-weight="400" font-size="83" transform="matrix(1 0 0 1 1133 541)">seen</text><text fill="#D4D4D4" font-family="Consolas,Consolas_MSFontService,sans-serif" font-weight="400" font-size="83" transform="matrix(1 0 0 1 1359.3 541)">:=</text><text fill="#DCDCAA" font-family="Consolas,Consolas_MSFontService,sans-serif" font-weight="400" font-size="83" transform="matrix(1 0 0 1 1495.08 541)">make</text><text fill="#CCCCCC" font-family="Consolas,Consolas_MSFontService,sans-serif" font-weight="400" font-size="83" transform="matrix(1 0 0 1 1676.12 541)">(</text><text fill="#569CD6" font-family="Consolas,Consolas_MSFontService,sans-serif" font-weight="400" font-size="83" transform="matrix(1 0 0 1 1721.39 541)">map</text><text fill="#CCCCCC" font-family="Consolas,Consolas_MSFontService,sans-serif" font-weight="400" font-size="83" transform="matrix(1 0 0 1 1857.17 541)">[</text><text fill="#D4D4D4" font-family="Consolas,Consolas_MSFontService,sans-serif" font-weight="400" font-size="83" transform="matrix(1 0 0 1 1902.43 541)">*</text><text fill="#4EC9B0" font-family="Consolas,Consolas_MSFontService,sans-serif" font-weight="400" font-size="83" transform="matrix(1 0 0 1 1947.69 541)">types</text><text fill="#CCCCCC" font-family="Consolas,Consolas_MSFontService,sans-serif" font-weight="400" font-size="83" transform="matrix(1 0 0 1 2173.99 541)">.</text><text fill="#4EC9B0" font-family="Consolas,Consolas_MSFontService,sans-serif" font-weight="400" font-size="83" transform="matrix(1 0 0 1 2219.25 541)">Package</text><text fill="#CCCCCC" font-family="Consolas,Consolas_MSFontService,sans-serif" font-weight="400" font-size="83" transform="matrix(1 0 0 1 2536.07 541)">]</text><text fill="#569CD6" font-family="Consolas,Consolas_MSFontService,sans-serif" font-weight="400" font-size="83" transform="matrix(1 0 0 1 2581.33 541)">struct</text><text fill="#CCCCCC" font-family="Consolas,Consolas_MSFontService,sans-serif" font-weight="400" font-size="83" transform="matrix(1 0 0 1 2852.9 541)">{})</text><text fill="#569CD6" font-family="Consolas,Consolas_MSFontService,sans-serif" font-weight="400" font-size="83" transform="matrix(1 0 0 1 1133 640)">var</text><text fill="#9CDCFE" font-family="Consolas,Consolas_MSFontService,sans-serif" font-weight="400" font-size="83" transform="matrix(1 0 0 1 1314.04 640)">addImports</text><text fill="#569CD6" font-family="Consolas,Consolas_MSFontService,sans-serif" font-weight="400" font-size="83" transform="matrix(1 0 0 1 1811.91 640)">func</text><text fill="#CCCCCC" font-family="Consolas,Consolas_MSFontService,sans-serif" font-weight="400" font-size="83" transform="matrix(1 0 0 1 1992.95 640)">(</text><text fill="#9CDCFE" font-family="Consolas,Consolas_MSFontService,sans-serif" font-weight="400" font-size="83" transform="matrix(1 0 0 1 2038.21 640)">pp</text><text fill="#CCCCCC" font-family="Consolas,Consolas_MSFontService,sans-serif" font-weight="400" font-size="83" transform="matrix(1 0 0 1 2173.99 640)">[]</text><text fill="#D4D4D4" font-family="Consolas,Consolas_MSFontService,sans-serif" font-weight="400" font-size="83" transform="matrix(1 0 0 1 2264.51 640)">*</text><text fill="#4EC9B0" font-family="Consolas,Consolas_MSFontService,sans-serif" font-weight="400" font-size="83" transform="matrix(1 0 0 1 2309.77 640)">types</text><text fill="#CCCCCC" font-family="Consolas,Consolas_MSFontService,sans-serif" font-weight="400" font-size="83" transform="matrix(1 0 0 1 2536.07 640)">.</text><text fill="#4EC9B0" font-family="Consolas,Consolas_MSFontService,sans-serif" font-weight="400" font-size="83" transform="matrix(1 0 0 1 2581.33 640)">Package</text><text fill="#CCCCCC" font-family="Consolas,Consolas_MSFontService,sans-serif" font-weight="400" font-size="83" transform="matrix(1 0 0 1 2898.16 640)">)</text><text fill="#9CDCFE" font-family="Consolas,Consolas_MSFontService,sans-serif" font-weight="400" font-size="83" transform="matrix(1 0 0 1 1133 739)">addImports</text><text fill="#D4D4D4" font-family="Consolas,Consolas_MSFontService,sans-serif" font-weight="400" font-size="83" transform="matrix(1 0 0 1 1630.86 739)">=</text><text fill="#569CD6" font-family="Consolas,Consolas_MSFontService,sans-serif" font-weight="400" font-size="83" transform="matrix(1 0 0 1 1721.39 739)">func</text><text fill="#CCCCCC" font-family="Consolas,Consolas_MSFontService,sans-serif" font-weight="400" font-size="83" transform="matrix(1 0 0 1 1902.43 739)">(</text><text fill="#9CDCFE" font-family="Consolas,Consolas_MSFontService,sans-serif" font-weight="400" font-size="83" transform="matrix(1 0 0 1 1947.69 739)">pp</text><text fill="#CCCCCC" font-family="Consolas,Consolas_MSFontService,sans-serif" font-weight="400" font-size="83" transform="matrix(1 0 0 1 2083.47 739)">[]</text><text fill="#D4D4D4" font-family="Consolas,Consolas_MSFontService,sans-serif" font-weight="400" font-size="83" transform="matrix(1 0 0 1 2173.99 739)">*</text><text fill="#4EC9B0" font-family="Consolas,Consolas_MSFontService,sans-serif" font-weight="400" font-size="83" transform="matrix(1 0 0 1 2219.25 739)">types</text><text fill="#CCCCCC" font-family="Consolas,Consolas_MSFontService,sans-serif" font-weight="400" font-size="83" transform="matrix(1 0 0 1 2445.55 739)">.</text><text fill="#4EC9B0" font-family="Consolas,Consolas_MSFontService,sans-serif" font-weight="400" font-size="83" transform="matrix(1 0 0 1 2490.81 739)">Package</text><text fill="#CCCCCC" font-family="Consolas,Consolas_MSFontService,sans-serif" font-weight="400" font-size="83" transform="matrix(1 0 0 1 2807.64 739)">) {</text><text fill="#C586C0" font-family="Consolas,Consolas_MSFontService,sans-serif" font-weight="400" font-size="83" transform="matrix(1 0 0 1 1314.04 838)">for</text><text fill="#9CDCFE" font-family="Consolas,Consolas_MSFontService,sans-serif" font-weight="400" font-size="83" transform="matrix(1 0 0 1 1495.08 838)">_</text><text fill="#CCCCCC" font-family="Consolas,Consolas_MSFontService,sans-serif" font-weight="400" font-size="83" transform="matrix(1 0 0 1 1540.34 838)">, </text><text fill="#9CDCFE" font-family="Consolas,Consolas_MSFontService,sans-serif" font-weight="400" font-size="83" transform="matrix(1 0 0 1 1630.86 838)">p</text><text fill="#D4D4D4" font-family="Consolas,Consolas_MSFontService,sans-serif" font-weight="400" font-size="83" transform="matrix(1 0 0 1 1721.39 838)">:=</text><text fill="#C586C0" font-family="Consolas,Consolas_MSFontService,sans-serif" font-weight="400" font-size="83" transform="matrix(1 0 0 1 1857.17 838)">range</text><text fill="#9CDCFE" font-family="Consolas,Consolas_MSFontService,sans-serif" font-weight="400" font-size="83" transform="matrix(1 0 0 1 2128.73 838)">pp</text><text fill="#CCCCCC" font-family="Consolas,Consolas_MSFontService,sans-serif" font-weight="400" font-size="83" transform="matrix(1 0 0 1 2264.51 838)">{</text><text fill="#C586C0" font-family="Consolas,Consolas_MSFontService,sans-serif" font-weight="400" font-size="83" transform="matrix(1 0 0 1 1495.08 937)">if</text><text fill="#9CDCFE" font-family="Consolas,Consolas_MSFontService,sans-serif" font-weight="400" font-size="83" transform="matrix(1 0 0 1 1630.86 937)">_</text><text fill="#CCCCCC" font-family="Consolas,Consolas_MSFontService,sans-serif" font-weight="400" font-size="83" transform="matrix(1 0 0 1 1676.12 937)">, </text><text fill="#9CDCFE" font-family="Consolas,Consolas_MSFontService,sans-serif" font-weight="400" font-size="83" transform="matrix(1 0 0 1 1766.65 937)">ok</text><text fill="#D4D4D4" font-family="Consolas,Consolas_MSFontService,sans-serif" font-weight="400" font-size="83" transform="matrix(1 0 0 1 1902.43 937)">:=</text><text fill="#9CDCFE" font-family="Consolas,Consolas_MSFontService,sans-serif" font-weight="400" font-size="83" transform="matrix(1 0 0 1 2038.21 937)">seen</text><text fill="#CCCCCC" font-family="Consolas,Consolas_MSFontService,sans-serif" font-weight="400" font-size="83" transform="matrix(1 0 0 1 2219.25 937)">[</text><text fill="#9CDCFE" font-family="Consolas,Consolas_MSFontService,sans-serif" font-weight="400" font-size="83" transform="matrix(1 0 0 1 2264.51 937)">p</text><text fill="#CCCCCC" font-family="Consolas,Consolas_MSFontService,sans-serif" font-weight="400" font-size="83" transform="matrix(1 0 0 1 2309.77 937)">]; </text><text fill="#9CDCFE" font-family="Consolas,Consolas_MSFontService,sans-serif" font-weight="400" font-size="83" transform="matrix(1 0 0 1 2445.55 937)">ok</text><text fill="#CCCCCC" font-family="Consolas,Consolas_MSFontService,sans-serif" font-weight="400" font-size="83" transform="matrix(1 0 0 1 2581.33 937)">{</text><text fill="#C586C0" font-family="Consolas,Consolas_MSFontService,sans-serif" font-weight="400" font-size="83" transform="matrix(1 0 0 1 1676.12 1036)">continue</text><text fill="#CCCCCC" font-family="Consolas,Consolas_MSFontService,sans-serif" font-weight="400" font-size="83" transform="matrix(1 0 0 1 1495.08 1135)">}</text><text fill="#9CDCFE" font-family="Consolas,Consolas_MSFontService,sans-serif" font-weight="400" font-size="83" transform="matrix(1 0 0 1 1495.08 1234)">seen</text><text fill="#CCCCCC" font-family="Consolas,Consolas_MSFontService,sans-serif" font-weight="400" font-size="83" transform="matrix(1 0 0 1 1676.12 1234)">[</text><text fill="#9CDCFE" font-family="Consolas,Consolas_MSFontService,sans-serif" font-weight="400" font-size="83" transform="matrix(1 0 0 1 1721.39 1234)">p</text><text fill="#CCCCCC" font-family="Consolas,Consolas_MSFontService,sans-serif" font-weight="400" font-size="83" transform="matrix(1 0 0 1 1766.65 1234)">] </text><text fill="#D4D4D4" font-family="Consolas,Consolas_MSFontService,sans-serif" font-weight="400" font-size="83" transform="matrix(1 0 0 1 1857.17 1234)">=</text><text fill="#569CD6" font-family="Consolas,Consolas_MSFontService,sans-serif" font-weight="400" font-size="83" transform="matrix(1 0 0 1 1947.69 1234)">struct</text><text fill="#CCCCCC" font-family="Consolas,Consolas_MSFontService,sans-serif" font-weight="400" font-size="83" transform="matrix(1 0 0 1 2219.25 1234)">{}{}</text><text fill="#9CDCFE" font-family="Consolas,Consolas_MSFontService,sans-serif" font-weight="400" font-size="83" transform="matrix(1 0 0 1 1495.08 1333)">tfact</text><text fill="#D4D4D4" font-family="Consolas,Consolas_MSFontService,sans-serif" font-weight="400" font-size="83" transform="matrix(1 0 0 1 1766.65 1333)">:=</text><text fill="#D4D4D4" font-family="Consolas,Consolas_MSFontService,sans-serif" font-weight="400" font-size="83" transform="matrix(1 0 0 1 1902.43 1333)">&amp;</text><text fill="#4EC9B0" font-family="Consolas,Consolas_MSFontService,sans-serif" font-weight="400" font-size="83" transform="matrix(1 0 0 1 1947.69 1333)">typesFact</text><text fill="#CCCCCC" font-family="Consolas,Consolas_MSFontService,sans-serif" font-weight="400" font-size="83" transform="matrix(1 0 0 1 2355.03 1333)">{}</text><text fill="#C586C0" font-family="Consolas,Consolas_MSFontService,sans-serif" font-weight="400" font-size="83" transform="matrix(1 0 0 1 1495.08 1432)">if</text><text fill="#9CDCFE" font-family="Consolas,Consolas_MSFontService,sans-serif" font-weight="400" font-size="83" transform="matrix(1 0 0 1 1630.86 1432)">ok</text><text fill="#D4D4D4" font-family="Consolas,Consolas_MSFontService,sans-serif" font-weight="400" font-size="83" transform="matrix(1 0 0 1 1766.65 1432)">:=</text><text fill="#9CDCFE" font-family="Consolas,Consolas_MSFontService,sans-serif" font-weight="400" font-size="83" transform="matrix(1 0 0 1 1902.43 1432)">pass</text><text fill="#CCCCCC" font-family="Consolas,Consolas_MSFontService,sans-serif" font-weight="400" font-size="83" transform="matrix(1 0 0 1 2083.47 1432)">.</text><text fill="#DCDCAA" font-family="Consolas,Consolas_MSFontService,sans-serif" font-weight="400" font-size="83" transform="matrix(1 0 0 1 2128.73 1432)">ImportPackageFact</text><text fill="#CCCCCC" font-family="Consolas,Consolas_MSFontService,sans-serif" font-weight="400" font-size="83" transform="matrix(1 0 0 1 2898.16 1432)">(</text><text fill="#9CDCFE" font-family="Consolas,Consolas_MSFontService,sans-serif" font-weight="400" font-size="83" transform="matrix(1 0 0 1 2943.42 1432)">p</text><text fill="#CCCCCC" font-family="Consolas,Consolas_MSFontService,sans-serif" font-weight="400" font-size="83" transform="matrix(1 0 0 1 2988.68 1432)">, </text><text fill="#9CDCFE" font-family="Consolas,Consolas_MSFontService,sans-serif" font-weight="400" font-size="83" transform="matrix(1 0 0 1 3079.2 1432)">tfact</text><text fill="#CCCCCC" font-family="Consolas,Consolas_MSFontService,sans-serif" font-weight="400" font-size="83" transform="matrix(1 0 0 1 3305.5 1432)">); </text><text fill="#D4D4D4" font-family="Consolas,Consolas_MSFontService,sans-serif" font-weight="400" font-size="83" transform="matrix(1 0 0 1 3441.28 1432)">!</text><text fill="#9CDCFE" font-family="Consolas,Consolas_MSFontService,sans-serif" font-weight="400" font-size="83" transform="matrix(1 0 0 1 3486.54 1432)">ok</text><text fill="#CCCCCC" font-family="Consolas,Consolas_MSFontService,sans-serif" font-weight="400" font-size="83" transform="matrix(1 0 0 1 3622.32 1432)">{</text><text fill="#9CDCFE" font-family="Consolas,Consolas_MSFontService,sans-serif" font-weight="400" font-size="83" transform="matrix(1 0 0 1 1676.12 1531)">pkg</text><text fill="#D4D4D4" font-family="Consolas,Consolas_MSFontService,sans-serif" font-weight="400" font-size="83" transform="matrix(1 0 0 1 1857.17 1531)">:=</text><text fill="#9CDCFE" font-family="Consolas,Consolas_MSFontService,sans-serif" font-weight="400" font-size="83" transform="matrix(1 0 0 1 1992.95 1531)">prog</text><text fill="#CCCCCC" font-family="Consolas,Consolas_MSFontService,sans-serif" font-weight="400" font-size="83" transform="matrix(1 0 0 1 2173.99 1531)">.</text><text fill="#DCDCAA" font-family="Consolas,Consolas_MSFontService,sans-serif" font-weight="400" font-size="83" transform="matrix(1 0 0 1 2219.25 1531)">CreatePackage</text><text fill="#CCCCCC" font-family="Consolas,Consolas_MSFontService,sans-serif" font-weight="400" font-size="83" transform="matrix(1 0 0 1 2807.64 1531)">(</text><text fill="#9CDCFE" font-family="Consolas,Consolas_MSFontService,sans-serif" font-weight="400" font-size="83" transform="matrix(1 0 0 1 2852.9 1531)">p</text><text fill="#CCCCCC" font-family="Consolas,Consolas_MSFontService,sans-serif" font-weight="400" font-size="83" transform="matrix(1 0 0 1 2898.16 1531)">, </text><text fill="#569CD6" font-family="Consolas,Consolas_MSFontService,sans-serif" font-weight="400" font-size="83" transform="matrix(1 0 0 1 2988.68 1531)">nil</text><text fill="#CCCCCC" font-family="Consolas,Consolas_MSFontService,sans-serif" font-weight="400" font-size="83" transform="matrix(1 0 0 1 3124.46 1531)">, </text><text fill="#569CD6" font-family="Consolas,Consolas_MSFontService,sans-serif" font-weight="400" font-size="83" transform="matrix(1 0 0 1 3214.98 1531)">nil</text><text fill="#CCCCCC" font-family="Consolas,Consolas_MSFontService,sans-serif" font-weight="400" font-size="83" transform="matrix(1 0 0 1 3350.76 1531)">, </text><text fill="#569CD6" font-family="Consolas,Consolas_MSFontService,sans-serif" font-weight="400" font-size="83" transform="matrix(1 0 0 1 3441.28 1531)">true</text><text fill="#CCCCCC" font-family="Consolas,Consolas_MSFontService,sans-serif" font-weight="400" font-size="83" transform="matrix(1 0 0 1 3622.32 1531)">)</text><text fill="#9CDCFE" font-family="Consolas,Consolas_MSFontService,sans-serif" font-weight="400" font-size="83" transform="matrix(1 0 0 1 1676.12 1630)">pkg</text><text fill="#CCCCCC" font-family="Consolas,Consolas_MSFontService,sans-serif" font-weight="400" font-size="83" transform="matrix(1 0 0 1 1811.91 1630)">.</text><text fill="#DCDCAA" font-family="Consolas,Consolas_MSFontService,sans-serif" font-weight="400" font-size="83" transform="matrix(1 0 0 1 1857.17 1630)">Build</text><text fill="#CCCCCC" font-family="Consolas,Consolas_MSFontService,sans-serif" font-weight="400" font-size="83" transform="matrix(1 0 0 1 2083.47 1630)">()</text><text fill="#C586C0" font-family="Consolas,Consolas_MSFontService,sans-serif" font-weight="400" font-size="83" transform="matrix(1 0 0 1 1676.12 1729)">continue</text><text fill="#CCCCCC" font-family="Consolas,Consolas_MSFontService,sans-serif" font-weight="400" font-size="83" transform="matrix(1 0 0 1 1495.08 1828)">}</text><text fill="#9CDCFE" font-family="Consolas,Consolas_MSFontService,sans-serif" font-weight="400" font-size="83" transform="matrix(1 0 0 1 1495.08 1927)">files</text><text fill="#D4D4D4" font-family="Consolas,Consolas_MSFontService,sans-serif" font-weight="400" font-size="83" transform="matrix(1 0 0 1 1766.65 1927)">:=</text><text fill="#9CDCFE" font-family="Consolas,Consolas_MSFontService,sans-serif" font-weight="400" font-size="83" transform="matrix(1 0 0 1 1902.43 1927)">slices</text><text fill="#CCCCCC" font-family="Consolas,Consolas_MSFontService,sans-serif" font-weight="400" font-size="83" transform="matrix(1 0 0 1 2173.99 1927)">.</text><text fill="#DCDCAA" font-family="Consolas,Consolas_MSFontService,sans-serif" font-weight="400" font-size="83" transform="matrix(1 0 0 1 2219.25 1927)">Collect</text><text fill="#CCCCCC" font-family="Consolas,Consolas_MSFontService,sans-serif" font-weight="400" font-size="83" transform="matrix(1 0 0 1 2536.07 1927)">(</text><text fill="#9CDCFE" font-family="Consolas,Consolas_MSFontService,sans-serif" font-weight="400" font-size="83" transform="matrix(1 0 0 1 2581.33 1927)">maps</text><text fill="#CCCCCC" font-family="Consolas,Consolas_MSFontService,sans-serif" font-weight="400" font-size="83" transform="matrix(1 0 0 1 2762.38 1927)">.</text><text fill="#DCDCAA" font-family="Consolas,Consolas_MSFontService,sans-serif" font-weight="400" font-size="83" transform="matrix(1 0 0 1 2807.64 1927)">Keys</text><text fill="#CCCCCC" font-family="Consolas,Consolas_MSFontService,sans-serif" font-weight="400" font-size="83" transform="matrix(1 0 0 1 2988.68 1927)">(</text><text fill="#9CDCFE" font-family="Consolas,Consolas_MSFontService,sans-serif" font-weight="400" font-size="83" transform="matrix(1 0 0 1 3033.94 1927)">tfact</text><text fill="#CCCCCC" font-family="Consolas,Consolas_MSFontService,sans-serif" font-weight="400" font-size="83" transform="matrix(1 0 0 1 3260.24 1927)">.</text><text fill="#9CDCFE" font-family="Consolas,Consolas_MSFontService,sans-serif" font-weight="400" font-size="83" transform="matrix(1 0 0 1 3305.5 1927)">typesInfo</text><text fill="#CCCCCC" font-family="Consolas,Consolas_MSFontService,sans-serif" font-weight="400" font-size="83" transform="matrix(1 0 0 1 3712.84 1927)">.</text><text fill="#9CDCFE" font-family="Consolas,Consolas_MSFontService,sans-serif" font-weight="400" font-size="83" transform="matrix(1 0 0 1 3758.1 1927)">FileVersions</text><text fill="#CCCCCC" font-family="Consolas,Consolas_MSFontService,sans-serif" font-weight="400" font-size="83" transform="matrix(1 0 0 1 4301.23 1927)">))</text><text fill="#9CDCFE" font-family="Consolas,Consolas_MSFontService,sans-serif" font-weight="400" font-size="83" transform="matrix(1 0 0 1 1495.08 2026)">pkg</text><text fill="#D4D4D4" font-family="Consolas,Consolas_MSFontService,sans-serif" font-weight="400" font-size="83" transform="matrix(1 0 0 1 1676.12 2026)">:=</text><text fill="#9CDCFE" font-family="Consolas,Consolas_MSFontService,sans-serif" font-weight="400" font-size="83" transform="matrix(1 0 0 1 1811.91 2026)">prog</text><text fill="#CCCCCC" font-family="Consolas,Consolas_MSFontService,sans-serif" font-weight="400" font-size="83" transform="matrix(1 0 0 1 1992.95 2026)">.</text><text fill="#DCDCAA" font-family="Consolas,Consolas_MSFontService,sans-serif" font-weight="400" font-size="83" transform="matrix(1 0 0 1 2038.21 2026)">CreatePackage</text><text fill="#CCCCCC" font-family="Consolas,Consolas_MSFontService,sans-serif" font-weight="400" font-size="83" transform="matrix(1 0 0 1 2626.59 2026)">(</text><text fill="#9CDCFE" font-family="Consolas,Consolas_MSFontService,sans-serif" font-weight="400" font-size="83" transform="matrix(1 0 0 1 2671.85 2026)">p</text><text fill="#CCCCCC" font-family="Consolas,Consolas_MSFontService,sans-serif" font-weight="400" font-size="83" transform="matrix(1 0 0 1 2717.11 2026)">, </text><text fill="#9CDCFE" font-family="Consolas,Consolas_MSFontService,sans-serif" font-weight="400" font-size="83" transform="matrix(1 0 0 1 2807.64 2026)">files</text><text fill="#CCCCCC" font-family="Consolas,Consolas_MSFontService,sans-serif" font-weight="400" font-size="83" transform="matrix(1 0 0 1 3033.94 2026)">, </text><text fill="#9CDCFE" font-family="Consolas,Consolas_MSFontService,sans-serif" font-weight="400" font-size="83" transform="matrix(1 0 0 1 3124.46 2026)">tfact</text><text fill="#CCCCCC" font-family="Consolas,Consolas_MSFontService,sans-serif" font-weight="400" font-size="83" transform="matrix(1 0 0 1 3350.76 2026)">.</text><text fill="#9CDCFE" font-family="Consolas,Consolas_MSFontService,sans-serif" font-weight="400" font-size="83" transform="matrix(1 0 0 1 3396.02 2026)">typesInfo</text><text fill="#CCCCCC" font-family="Consolas,Consolas_MSFontService,sans-serif" font-weight="400" font-size="83" transform="matrix(1 0 0 1 3803.36 2026)">, </text><text fill="#569CD6" font-family="Consolas,Consolas_MSFontService,sans-serif" font-weight="400" font-size="83" transform="matrix(1 0 0 1 3893.89 2026)">true</text><text fill="#CCCCCC" font-family="Consolas,Consolas_MSFontService,sans-serif" font-weight="400" font-size="83" transform="matrix(1 0 0 1 4074.93 2026)">)</text><text fill="#DCDCAA" font-family="Consolas,Consolas_MSFontService,sans-serif" font-weight="400" font-size="83" transform="matrix(1 0 0 1 1495.08 2125)">addImports</text><text fill="#CCCCCC" font-family="Consolas,Consolas_MSFontService,sans-serif" font-weight="400" font-size="83" transform="matrix(1 0 0 1 1947.69 2125)">(</text><text fill="#9CDCFE" font-family="Consolas,Consolas_MSFontService,sans-serif" font-weight="400" font-size="83" transform="matrix(1 0 0 1 1992.95 2125)">p</text><text fill="#CCCCCC" font-family="Consolas,Consolas_MSFontService,sans-serif" font-weight="400" font-size="83" transform="matrix(1 0 0 1 2038.21 2125)">.</text><text fill="#DCDCAA" font-family="Consolas,Consolas_MSFontService,sans-serif" font-weight="400" font-size="83" transform="matrix(1 0 0 1 2083.47 2125)">Imports</text><text fill="#CCCCCC" font-family="Consolas,Consolas_MSFontService,sans-serif" font-weight="400" font-size="83" transform="matrix(1 0 0 1 2400.29 2125)">())</text><text fill="#9CDCFE" font-family="Consolas,Consolas_MSFontService,sans-serif" font-weight="400" font-size="83" transform="matrix(1 0 0 1 1495.08 2224)">pkg</text><text fill="#CCCCCC" font-family="Consolas,Consolas_MSFontService,sans-serif" font-weight="400" font-size="83" transform="matrix(1 0 0 1 1630.86 2224)">.</text><text fill="#DCDCAA" font-family="Consolas,Consolas_MSFontService,sans-serif" font-weight="400" font-size="83" transform="matrix(1 0 0 1 1676.12 2224)">Build</text><text fill="#CCCCCC" font-family="Consolas,Consolas_MSFontService,sans-serif" font-weight="400" font-size="83" transform="matrix(1 0 0 1 1902.43 2224)">()</text><text fill="#CCCCCC" font-family="Consolas,Consolas_MSFontService,sans-serif" font-weight="400" font-size="83" transform="matrix(1 0 0 1 1314.04 2323)">}</text><text fill="#CCCCCC" font-family="Consolas,Consolas_MSFontService,sans-serif" font-weight="400" font-size="83" transform="matrix(1 0 0 1 1133 2422)">}</text><text fill="#DCDCAA" font-family="Consolas,Consolas_MSFontService,sans-serif" font-weight="400" font-size="83" transform="matrix(1 0 0 1 1133 2521)">addImports</text><text fill="#CCCCCC" font-family="Consolas,Consolas_MSFontService,sans-serif" font-weight="400" font-size="83" transform="matrix(1 0 0 1 1585.6 2521)">(</text><text fill="#9CDCFE" font-family="Consolas,Consolas_MSFontService,sans-serif" font-weight="400" font-size="83" transform="matrix(1 0 0 1 1630.86 2521)">pass</text><text fill="#CCCCCC" font-family="Consolas,Consolas_MSFontService,sans-serif" font-weight="400" font-size="83" transform="matrix(1 0 0 1 1811.91 2521)">.</text><text fill="#9CDCFE" font-family="Consolas,Consolas_MSFontService,sans-serif" font-weight="400" font-size="83" transform="matrix(1 0 0 1 1857.17 2521)">Pkg</text><text fill="#CCCCCC" font-family="Consolas,Consolas_MSFontService,sans-serif" font-weight="400" font-size="83" transform="matrix(1 0 0 1 1992.95 2521)">.</text><text fill="#DCDCAA" font-family="Consolas,Consolas_MSFontService,sans-serif" font-weight="400" font-size="83" transform="matrix(1 0 0 1 2038.21 2521)">Imports</text><text fill="#CCCCCC" font-family="Consolas,Consolas_MSFontService,sans-serif" font-weight="400" font-size="83" transform="matrix(1 0 0 1 2355.03 2521)">())</text><text fill="#9CDCFE" font-family="Consolas,Consolas_MSFontService,sans-serif" font-weight="400" font-size="83" transform="matrix(1 0 0 1 1133 2620)">prog</text><text fill="#CCCCCC" font-family="Consolas,Consolas_MSFontService,sans-serif" font-weight="400" font-size="83" transform="matrix(1 0 0 1 1314.04 2620)">.</text><text fill="#DCDCAA" font-family="Consolas,Consolas_MSFontService,sans-serif" font-weight="400" font-size="83" transform="matrix(1 0 0 1 1359.3 2620)">CreatePackage</text><text fill="#CCCCCC" font-family="Consolas,Consolas_MSFontService,sans-serif" font-weight="400" font-size="83" transform="matrix(1 0 0 1 1947.69 2620)">(</text><text fill="#9CDCFE" font-family="Consolas,Consolas_MSFontService,sans-serif" font-weight="400" font-size="83" transform="matrix(1 0 0 1 1992.95 2620)">pass</text><text fill="#CCCCCC" font-family="Consolas,Consolas_MSFontService,sans-serif" font-weight="400" font-size="83" transform="matrix(1 0 0 1 2173.99 2620)">.</text><text fill="#9CDCFE" font-family="Consolas,Consolas_MSFontService,sans-serif" font-weight="400" font-size="83" transform="matrix(1 0 0 1 2219.25 2620)">Pkg</text><text fill="#CCCCCC" font-family="Consolas,Consolas_MSFontService,sans-serif" font-weight="400" font-size="83" transform="matrix(1 0 0 1 2355.03 2620)">, </text><text fill="#9CDCFE" font-family="Consolas,Consolas_MSFontService,sans-serif" font-weight="400" font-size="83" transform="matrix(1 0 0 1 2445.55 2620)">pass</text><text fill="#CCCCCC" font-family="Consolas,Consolas_MSFontService,sans-serif" font-weight="400" font-size="83" transform="matrix(1 0 0 1 2626.59 2620)">.</text><text fill="#9CDCFE" font-family="Consolas,Consolas_MSFontService,sans-serif" font-weight="400" font-size="83" transform="matrix(1 0 0 1 2671.85 2620)">Files</text><text fill="#CCCCCC" font-family="Consolas,Consolas_MSFontService,sans-serif" font-weight="400" font-size="83" transform="matrix(1 0 0 1 2898.16 2620)">, </text><text fill="#9CDCFE" font-family="Consolas,Consolas_MSFontService,sans-serif" font-weight="400" font-size="83" transform="matrix(1 0 0 1 2988.68 2620)">pass</text><text fill="#CCCCCC" font-family="Consolas,Consolas_MSFontService,sans-serif" font-weight="400" font-size="83" transform="matrix(1 0 0 1 3169.72 2620)">.</text><text fill="#9CDCFE" font-family="Consolas,Consolas_MSFontService,sans-serif" font-weight="400" font-size="83" transform="matrix(1 0 0 1 3214.98 2620)">TypesInfo</text><text fill="#CCCCCC" font-family="Consolas,Consolas_MSFontService,sans-serif" font-weight="400" font-size="83" transform="matrix(1 0 0 1 3622.32 2620)">, </text><text fill="#569CD6" font-family="Consolas,Consolas_MSFontService,sans-serif" font-weight="400" font-size="83" transform="matrix(1 0 0 1 3712.84 2620)">false</text><text fill="#CCCCCC" font-family="Consolas,Consolas_MSFontService,sans-serif" font-weight="400" font-size="83" transform="matrix(1 0 0 1 3939.15 2620)">)</text><text fill="#9CDCFE" font-family="Consolas,Consolas_MSFontService,sans-serif" font-weight="400" font-size="83" transform="matrix(1 0 0 1 1133 2719)">prog</text><text fill="#CCCCCC" font-family="Consolas,Consolas_MSFontService,sans-serif" font-weight="400" font-size="83" transform="matrix(1 0 0 1 1314.04 2719)">.</text><text fill="#DCDCAA" font-family="Consolas,Consolas_MSFontService,sans-serif" font-weight="400" font-size="83" transform="matrix(1 0 0 1 1359.3 2719)">Build</text><text fill="#CCCCCC" font-family="Consolas,Consolas_MSFontService,sans-serif" font-weight="400" font-size="83" transform="matrix(1 0 0 1 1585.6 2719)">()</text></g></svg>