<svg width="2256" height="2069" xmlns="http://www.w3.org/2000/svg" xmlns:xlink="http://www.w3.org/1999/xlink" xml:space="preserve" overflow="hidden"><g transform="translate(-309 -278)"><text fill="#569CD6" font-family="Consolas,Consolas_MSFontService,sans-serif" font-weight="400" font-size="147" transform="matrix(1 0 0 1 397.833 460)">func</text><text fill="#DCDCAA" font-family="Consolas,Consolas_MSFontService,sans-serif" font-weight="400" font-size="147" transform="matrix(1 0 0 1 801.74 460)">Create</text><text fill="#CCCCCC" font-family="Consolas,Consolas_MSFontService,sans-serif" font-weight="400" font-size="147" transform="matrix(1 0 0 1 1286.43 460)">() {</text><text fill="#9CDCFE" font-family="Consolas,Consolas_MSFontService,sans-serif" font-weight="400" font-size="147" transform="matrix(1 0 0 1 720.958 636)">product</text><text fill="#CCCCCC" font-family="Consolas,Consolas_MSFontService,sans-serif" font-weight="400" font-size="147" transform="matrix(1 0 0 1 1286.43 636)">.</text><text fill="#DCDCAA" font-family="Consolas,Consolas_MSFontService,sans-serif" font-weight="400" font-size="147" transform="matrix(1 0 0 1 1367.21 636)">Tx</text><text fill="#CCCCCC" font-family="Consolas,Consolas_MSFontService,sans-serif" font-weight="400" font-size="147" transform="matrix(1 0 0 1 1528.77 636)">(</text><text fill="#569CD6" font-family="Consolas,Consolas_MSFontService,sans-serif" font-weight="400" font-size="147" transform="matrix(1 0 0 1 1609.55 636)">func</text><text fill="#CCCCCC" font-family="Consolas,Consolas_MSFontService,sans-serif" font-weight="400" font-size="147" transform="matrix(1 0 0 1 1932.68 636)">(){</text><text fill="#9CDCFE" font-family="Consolas,Consolas_MSFontService,sans-serif" font-weight="400" font-size="147" transform="matrix(1 0 0 1 1044.08 812)">authz</text><text fill="#CCCCCC" font-family="Consolas,Consolas_MSFontService,sans-serif" font-weight="400" font-size="147" transform="matrix(1 0 0 1 1447.99 812)">.</text><text fill="#DCDCAA" font-family="Consolas,Consolas_MSFontService,sans-serif" font-weight="400" font-size="147" transform="matrix(1 0 0 1 1528.77 812)">CanAccess</text><text fill="#CCCCCC" font-family="Consolas,Consolas_MSFontService,sans-serif" font-weight="400" font-size="147" transform="matrix(1 0 0 1 2255.8 812)">()</text><text fill="#CCCCCC" font-family="Consolas,Consolas_MSFontService,sans-serif" font-weight="400" font-size="147" transform="matrix(1 0 0 1 720.958 988)">})</text><text fill="#CCCCCC" font-family="Consolas,Consolas_MSFontService,sans-serif" font-weight="400" font-size="147" transform="matrix(1 0 0 1 397.833 1164)">}</text><text fill="#569CD6" font-family="Consolas,Consolas_MSFontService,sans-serif" font-weight="400" font-size="147" transform="matrix(1 0 0 1 397.833 1516)">func</text><text fill="#DCDCAA" font-family="Consolas,Consolas_MSFontService,sans-serif" font-weight="400" font-size="147" transform="matrix(1 0 0 1 801.74 1516)">Update</text><text fill="#CCCCCC" font-family="Consolas,Consolas_MSFontService,sans-serif" font-weight="400" font-size="147" transform="matrix(1 0 0 1 1286.43 1516)">() {</text><text fill="#9CDCFE" font-family="Consolas,Consolas_MSFontService,sans-serif" font-weight="400" font-size="147" transform="matrix(1 0 0 1 720.958 1692)">product</text><text fill="#CCCCCC" font-family="Consolas,Consolas_MSFontService,sans-serif" font-weight="400" font-size="147" transform="matrix(1 0 0 1 1286.43 1692)">.</text><text fill="#DCDCAA" font-family="Consolas,Consolas_MSFontService,sans-serif" font-weight="400" font-size="147" transform="matrix(1 0 0 1 1367.21 1692)">Tx</text><text fill="#CCCCCC" font-family="Consolas,Consolas_MSFontService,sans-serif" font-weight="400" font-size="147" transform="matrix(1 0 0 1 1528.77 1692)">(</text><text fill="#569CD6" font-family="Consolas,Consolas_MSFontService,sans-serif" font-weight="400" font-size="147" transform="matrix(1 0 0 1 1609.55 1692)">func</text><text fill="#CCCCCC" font-family="Consolas,Consolas_MSFontService,sans-serif" font-weight="400" font-size="147" transform="matrix(1 0 0 1 1932.68 1692)">(){</text><text fill="#6A9955" font-family="Consolas,Consolas_MSFontService,sans-serif" font-weight="400" font-size="147" transform="matrix(1 0 0 1 1044.08 1866)">// </text><text fill="#6A9955" font-family="Yu Gothic,Yu Gothic_MSFontService,sans-serif" font-weight="400" font-size="147" transform="matrix(1 0 0 1 1286.43 1866)">なし</text><text fill="#CCCCCC" font-family="Consolas,Consolas_MSFontService,sans-serif" font-weight="400" font-size="147" transform="matrix(1 0 0 1 720.958 2044)">})</text><text fill="#CCCCCC" font-family="Consolas,Consolas_MSFontService,sans-serif" font-weight="400" font-size="147" transform="matrix(1 0 0 1 397.833 2220)">}</text></g></svg>